# xmcd
#
# Track frame offsets: 
#        150
#        15658
#        32535
#        49596
#        64025
#        77905
#        88896
#        105440
#        118933
#        133204
#
# Disc length: 1993 seconds
#
# Revision: 2
# Processed by: cddbd v1.5.2PL0 Copyright (c) Steve Scherf et al.
# Submitted via: ExactAudioCopy v0.99pb5
#
DISCID=8007c70a
DTITLE=Александр Новиков - Стенка
DYEAR=2000
DGENRE=Chanson
TTITLE0=Страна всеобщего вранья
TTITLE1=Стенка
TTITLE2=Ах, война
TTITLE3=Ай, по стеночке
TTITLE4=В обетованной стране
TTITLE5=Поросячий рай
TTITLE6=Нина - Ниночка
TTITLE7=Попрошайка
TTITLE8=Про водку
TTITLE9=Все движемся
EXTD=
EXTT0=
EXTT1=
EXTT2=
EXTT3=
EXTT4=
EXTT5=
EXTT6=
EXTT7=
EXTT8=
EXTT9=
PLAYORDER=
